<svg width="723" height="403" viewBox="0 0 723 403" fill="none" xmlns="http://www.w3.org/2000/svg">
<path d="M146.888 336V281.472H125.384V268.8H183.944V281.472H162.44V336H146.888ZM220.311 336V325.92L219.351 323.712V305.664C219.351 302.464 218.359 299.968 216.375 298.176C214.455 296.384 211.479 295.488 207.447 295.488C204.695 295.488 201.975 295.936 199.287 296.832C196.663 297.664 194.423 298.816 192.567 300.288L187.191 289.824C190.007 287.84 193.399 286.304 197.367 285.216C201.335 284.128 205.367 283.584 209.463 283.584C217.335 283.584 223.447 285.44 227.799 289.152C232.151 292.864 234.327 298.656 234.327 306.528V336H220.311ZM204.567 336.768C200.535 336.768 197.079 336.096 194.199 334.752C191.319 333.344 189.111 331.456 187.575 329.088C186.039 326.72 185.271 324.064 185.271 321.12C185.271 318.048 186.007 315.36 187.479 313.056C189.015 310.752 191.415 308.96 194.679 307.68C197.943 306.336 202.199 305.664 207.447 305.664H221.175V314.4H209.079C205.559 314.4 203.127 314.976 201.783 316.128C200.503 317.28 199.863 318.72 199.863 320.448C199.863 322.368 200.599 323.904 202.071 325.056C203.607 326.144 205.687 326.688 208.311 326.688C210.807 326.688 213.047 326.112 215.031 324.96C217.015 323.744 218.455 321.984 219.351 319.68L221.655 326.592C220.567 329.92 218.583 332.448 215.703 334.176C212.823 335.904 209.111 336.768 204.567 336.768ZM265.257 336.768C260.841 336.768 256.585 336.256 252.489 335.232C248.457 334.144 245.257 332.8 242.889 331.2L247.881 320.448C250.249 321.92 253.033 323.136 256.233 324.096C259.497 324.992 262.697 325.44 265.833 325.44C269.289 325.44 271.721 325.024 273.129 324.192C274.601 323.36 275.337 322.208 275.337 320.736C275.337 319.52 274.761 318.624 273.609 318.048C272.521 317.408 271.049 316.928 269.193 316.608C267.337 316.288 265.289 315.968 263.049 315.648C260.873 315.328 258.665 314.912 256.425 314.4C254.185 313.824 252.137 312.992 250.281 311.904C248.425 310.816 246.921 309.344 245.769 307.488C244.681 305.632 244.137 303.232 244.137 300.288C244.137 297.024 245.065 294.144 246.921 291.648C248.841 289.152 251.593 287.2 255.177 285.792C258.761 284.32 263.049 283.584 268.041 283.584C271.561 283.584 275.145 283.968 278.793 284.736C282.441 285.504 285.481 286.624 287.913 288.096L282.921 298.752C280.425 297.28 277.897 296.288 275.337 295.776C272.841 295.2 270.409 294.912 268.041 294.912C264.713 294.912 262.281 295.36 260.745 296.256C259.209 297.152 258.441 298.304 258.441 299.712C258.441 300.992 258.985 301.952 260.073 302.592C261.225 303.232 262.729 303.744 264.585 304.128C266.441 304.512 268.457 304.864 270.633 305.184C272.873 305.44 275.113 305.856 277.353 306.432C279.593 307.008 281.609 307.84 283.401 308.928C285.257 309.952 286.761 311.392 287.913 313.248C289.065 315.04 289.641 317.408 289.641 320.352C289.641 323.552 288.681 326.4 286.761 328.896C284.841 331.328 282.057 333.248 278.409 334.656C274.825 336.064 270.441 336.768 265.257 336.768ZM311.265 325.44L311.649 307.2L335.745 284.352H353.601L330.465 307.872L322.689 314.208L311.265 325.44ZM298.881 336V264.768H313.857V336H298.881ZM337.377 336L319.905 314.304L329.313 302.688L355.521 336H337.377ZM377.712 299.04H409.968V311.52H377.712V299.04ZM378.864 336H363.312V268.8H414.096V281.28H378.864V336ZM423.568 336V264.768H438.544V336H423.568ZM477.019 336.768C471.515 336.768 466.619 335.616 462.331 333.312C458.107 331.008 454.747 327.872 452.251 323.904C449.819 319.872 448.603 315.296 448.603 310.176C448.603 304.992 449.819 300.416 452.251 296.448C454.747 292.416 458.107 289.28 462.331 287.04C466.619 284.736 471.515 283.584 477.019 283.584C482.459 283.584 487.323 284.736 491.611 287.04C495.899 289.28 499.259 292.384 501.691 296.352C504.123 300.32 505.339 304.928 505.339 310.176C505.339 315.296 504.123 319.872 501.691 323.904C499.259 327.872 495.899 331.008 491.611 333.312C487.323 335.616 482.459 336.768 477.019 336.768ZM477.019 324.48C479.515 324.48 481.755 323.904 483.739 322.752C485.723 321.6 487.291 319.968 488.443 317.856C489.595 315.68 490.171 313.12 490.171 310.176C490.171 307.168 489.595 304.608 488.443 302.496C487.291 300.384 485.723 298.752 483.739 297.6C481.755 296.448 479.515 295.872 477.019 295.872C474.523 295.872 472.283 296.448 470.299 297.6C468.315 298.752 466.715 300.384 465.499 302.496C464.347 304.608 463.771 307.168 463.771 310.176C463.771 313.12 464.347 315.68 465.499 317.856C466.715 319.968 468.315 321.6 470.299 322.752C472.283 323.904 474.523 324.48 477.019 324.48ZM525.751 336L507.127 284.352H521.239L536.695 328.8H529.975L546.103 284.352H558.775L574.423 328.8H567.703L583.639 284.352H596.887L578.167 336H563.671L549.943 297.888H554.359L540.151 336H525.751Z" fill="#E7EAEF"/>
<g filter="url(#filter0_d_122_501)">
<path d="M433.842 211.909C448.89 194.448 455.447 182.928 460.158 155.955C463.74 122.872 455.47 109.126 443.365 72.8421C431.098 151.268 401.826 183.146 341.865 242.994C375.697 243.232 407.243 236.233 433.842 211.909Z" fill="#017080"/>
<path d="M329.423 235.73C308.537 227.616 297.999 219.908 282.053 202.158C358.558 176.599 396.013 129.688 430.741 67.8683C418.043 133.138 387.835 186.37 329.423 235.73Z" fill="#0D9EB2"/>
<path d="M267.263 172.559C336.611 145.883 361.974 120.13 408.056 69.3552C377.575 131.567 348.291 158.492 275 190C270.862 184.223 269.263 180.127 267.263 172.559Z" fill="#017080"/>
<path d="M396.575 47.0114C364.296 105.672 338.534 127.689 262.302 156.727C251.36 87.2185 310.535 26.6088 396.575 47.0114Z" fill="#0D9EB2"/>
</g>
<defs>
<filter id="filter0_d_122_501" x="259" y="43" width="208" height="208" filterUnits="userSpaceOnUse" color-interpolation-filters="sRGB">
<feFlood flood-opacity="0" result="BackgroundImageFix"/>
<feColorMatrix in="SourceAlpha" type="matrix" values="0 0 0 0 0 0 0 0 0 0 0 0 0 0 0 0 0 0 127 0" result="hardAlpha"/>
<feOffset dx="2" dy="4"/>
<feGaussianBlur stdDeviation="2"/>
<feComposite in2="hardAlpha" operator="out"/>
<feColorMatrix type="matrix" values="0 0 0 0 0 0 0 0 0 0 0 0 0 0 0 0 0 0 0.25 0"/>
<feBlend mode="normal" in2="BackgroundImageFix" result="effect1_dropShadow_122_501"/>
<feBlend mode="normal" in="SourceGraphic" in2="effect1_dropShadow_122_501" result="shape"/>
</filter>
</defs>
</svg>
