<svg width="723" height="403" viewBox="0 0 723 403" fill="none" xmlns="http://www.w3.org/2000/svg">
<g clip-path="url(#clip0_123_1076)">
<path d="M272.888 236V181.472H251.384V168.8H309.944V181.472H288.44V236H272.888ZM346.311 236V225.92L345.351 223.712V205.664C345.351 202.464 344.359 199.968 342.375 198.176C340.455 196.384 337.479 195.488 333.447 195.488C330.695 195.488 327.975 195.936 325.287 196.832C322.663 197.664 320.423 198.816 318.567 200.288L313.191 189.824C316.007 187.84 319.399 186.304 323.367 185.216C327.335 184.128 331.367 183.584 335.463 183.584C343.335 183.584 349.447 185.44 353.799 189.152C358.151 192.864 360.327 198.656 360.327 206.528V236H346.311ZM330.567 236.768C326.535 236.768 323.079 236.096 320.199 234.752C317.319 233.344 315.111 231.456 313.575 229.088C312.039 226.72 311.271 224.064 311.271 221.12C311.271 218.048 312.007 215.36 313.479 213.056C315.015 210.752 317.415 208.96 320.679 207.68C323.943 206.336 328.199 205.664 333.447 205.664H347.175V214.4H335.079C331.559 214.4 329.127 214.976 327.783 216.128C326.503 217.28 325.863 218.72 325.863 220.448C325.863 222.368 326.599 223.904 328.071 225.056C329.607 226.144 331.687 226.688 334.311 226.688C336.807 226.688 339.047 226.112 341.031 224.96C343.015 223.744 344.455 221.984 345.351 219.68L347.655 226.592C346.567 229.92 344.583 232.448 341.703 234.176C338.823 235.904 335.111 236.768 330.567 236.768ZM391.257 236.768C386.841 236.768 382.585 236.256 378.489 235.232C374.457 234.144 371.257 232.8 368.889 231.2L373.881 220.448C376.249 221.92 379.033 223.136 382.233 224.096C385.497 224.992 388.697 225.44 391.833 225.44C395.289 225.44 397.721 225.024 399.129 224.192C400.601 223.36 401.337 222.208 401.337 220.736C401.337 219.52 400.761 218.624 399.609 218.048C398.521 217.408 397.049 216.928 395.193 216.608C393.337 216.288 391.289 215.968 389.049 215.648C386.873 215.328 384.665 214.912 382.425 214.4C380.185 213.824 378.137 212.992 376.281 211.904C374.425 210.816 372.921 209.344 371.769 207.488C370.681 205.632 370.137 203.232 370.137 200.288C370.137 197.024 371.065 194.144 372.921 191.648C374.841 189.152 377.593 187.2 381.177 185.792C384.761 184.32 389.049 183.584 394.041 183.584C397.561 183.584 401.145 183.968 404.793 184.736C408.441 185.504 411.481 186.624 413.913 188.096L408.921 198.752C406.425 197.28 403.897 196.288 401.337 195.776C398.841 195.2 396.409 194.912 394.041 194.912C390.713 194.912 388.281 195.36 386.745 196.256C385.209 197.152 384.441 198.304 384.441 199.712C384.441 200.992 384.985 201.952 386.073 202.592C387.225 203.232 388.729 203.744 390.585 204.128C392.441 204.512 394.457 204.864 396.633 205.184C398.873 205.44 401.113 205.856 403.353 206.432C405.593 207.008 407.609 207.84 409.401 208.928C411.257 209.952 412.761 211.392 413.913 213.248C415.065 215.04 415.641 217.408 415.641 220.352C415.641 223.552 414.681 226.4 412.761 228.896C410.841 231.328 408.057 233.248 404.409 234.656C400.825 236.064 396.441 236.768 391.257 236.768ZM437.265 225.44L437.649 207.2L461.745 184.352H479.601L456.465 207.872L448.689 214.208L437.265 225.44ZM424.881 236V164.768H439.857V236H424.881ZM463.377 236L445.905 214.304L455.313 202.688L481.521 236H463.377ZM503.712 199.04H535.968V211.52H503.712V199.04ZM504.864 236H489.312V168.8H540.096V181.28H504.864V236ZM549.568 236V164.768H564.544V236H549.568ZM603.019 236.768C597.515 236.768 592.619 235.616 588.331 233.312C584.107 231.008 580.747 227.872 578.251 223.904C575.819 219.872 574.603 215.296 574.603 210.176C574.603 204.992 575.819 200.416 578.251 196.448C580.747 192.416 584.107 189.28 588.331 187.04C592.619 184.736 597.515 183.584 603.019 183.584C608.459 183.584 613.323 184.736 617.611 187.04C621.899 189.28 625.259 192.384 627.691 196.352C630.123 200.32 631.339 204.928 631.339 210.176C631.339 215.296 630.123 219.872 627.691 223.904C625.259 227.872 621.899 231.008 617.611 233.312C613.323 235.616 608.459 236.768 603.019 236.768ZM603.019 224.48C605.515 224.48 607.755 223.904 609.739 222.752C611.723 221.6 613.291 219.968 614.443 217.856C615.595 215.68 616.171 213.12 616.171 210.176C616.171 207.168 615.595 204.608 614.443 202.496C613.291 200.384 611.723 198.752 609.739 197.6C607.755 196.448 605.515 195.872 603.019 195.872C600.523 195.872 598.283 196.448 596.299 197.6C594.315 198.752 592.715 200.384 591.499 202.496C590.347 204.608 589.771 207.168 589.771 210.176C589.771 213.12 590.347 215.68 591.499 217.856C592.715 219.968 594.315 221.6 596.299 222.752C598.283 223.904 600.523 224.48 603.019 224.48ZM651.751 236L633.127 184.352H647.239L662.695 228.8H655.975L672.103 184.352H684.775L700.423 228.8H693.703L709.639 184.352H722.887L704.167 236H689.671L675.943 197.888H680.359L666.151 236H651.751Z" fill="#E7EAEF"/>
<g filter="url(#filter0_d_123_1076)">
<path d="M172.842 269.909C187.89 252.448 194.447 240.928 199.158 213.955C202.74 180.872 194.47 167.126 182.365 130.842C170.098 209.268 140.826 241.146 80.865 300.994C114.697 301.232 146.243 294.233 172.842 269.909Z" fill="#017080"/>
<path d="M68.4227 293.73C47.5373 285.616 36.9991 277.908 21.0532 260.158C97.5576 234.599 135.013 187.688 169.741 125.868C157.043 191.138 126.835 244.37 68.4227 293.73Z" fill="#0D9EB2"/>
<path d="M6.26318 230.559C75.6112 203.883 100.974 178.13 147.056 127.355C116.575 189.567 87.2908 216.492 14 248C9.86187 242.223 8.26251 238.127 6.26318 230.559Z" fill="#017080"/>
<path d="M135.575 105.011C103.296 163.672 77.5339 185.689 1.302 214.727C-9.6401 145.219 49.5348 84.6088 135.575 105.011Z" fill="#0D9EB2"/>
</g>
</g>
<defs>
<filter id="filter0_d_123_1076" x="-2" y="101" width="208" height="208" filterUnits="userSpaceOnUse" color-interpolation-filters="sRGB">
<feFlood flood-opacity="0" result="BackgroundImageFix"/>
<feColorMatrix in="SourceAlpha" type="matrix" values="0 0 0 0 0 0 0 0 0 0 0 0 0 0 0 0 0 0 127 0" result="hardAlpha"/>
<feOffset dx="2" dy="4"/>
<feGaussianBlur stdDeviation="2"/>
<feComposite in2="hardAlpha" operator="out"/>
<feColorMatrix type="matrix" values="0 0 0 0 0 0 0 0 0 0 0 0 0 0 0 0 0 0 0.25 0"/>
<feBlend mode="normal" in2="BackgroundImageFix" result="effect1_dropShadow_123_1076"/>
<feBlend mode="normal" in="SourceGraphic" in2="effect1_dropShadow_123_1076" result="shape"/>
</filter>
<clipPath id="clip0_123_1076">
<rect width="723" height="403" fill="white"/>
</clipPath>
</defs>
</svg>
