<svg width="300" height="192" viewBox="0 0 300 192" fill="none" xmlns="http://www.w3.org/2000/svg">
<g clip-path="url(#clip0_6_202)">
<path d="M246.202 191.702C246.202 191.702 291.865 143.661 270.891 83.9808C259.429 51.3652 239.011 38.7305 203.614 42.2111C165.341 45.976 141.014 6.81338 72.12 23.7247C54.7557 27.6038 38.353 37.7311 29.3583 54.7924C21.3525 69.9786 20.673 100.015 33.8855 120.889C47.0981 141.762 72.4776 163.817 46.1134 191.702H246.202Z" fill="#06616E"/>
<path d="M99.6966 52.5576V191.321H203.037V75.3919L180.788 52.5576H99.6966Z" fill="#E7EAEF"/>
<path d="M203.037 75.4349L180.918 52.5576V75.4349H203.037Z" fill="#AAC9F8"/>
<path d="M192.43 94.6303H125.232C124.71 94.6303 124.285 94.106 124.285 93.4589C124.285 92.8119 124.709 92.2875 125.232 92.2875H192.43C192.952 92.2875 193.377 92.8119 193.377 93.4589C193.377 94.106 192.953 94.6303 192.43 94.6303Z" fill="#AAC9F8"/>
<path d="M192.43 104.877H125.232C124.71 104.877 124.285 104.353 124.285 103.706C124.285 103.059 124.709 102.534 125.232 102.534H192.43C192.952 102.534 193.377 103.059 193.377 103.706C193.377 104.353 192.953 104.877 192.43 104.877Z" fill="#AAC9F8"/>
<path d="M192.43 115.123H125.232C124.71 115.123 124.285 114.599 124.285 113.952C124.285 113.304 124.709 112.78 125.232 112.78H192.43C192.952 112.78 193.377 113.304 193.377 113.952C193.377 114.599 192.953 115.123 192.43 115.123Z" fill="#AAC9F8"/>
<path d="M192.43 135.616H125.232C124.71 135.616 124.285 135.091 124.285 134.444C124.285 133.797 124.709 133.273 125.232 133.273H192.43C192.952 133.273 193.377 133.797 193.377 134.444C193.377 135.091 192.953 135.616 192.43 135.616Z" fill="#AAC9F8"/>
<path d="M192.43 145.862H125.232C124.71 145.862 124.285 145.338 124.285 144.691C124.285 144.044 124.709 143.52 125.232 143.52H192.43C192.952 143.52 193.377 144.044 193.377 144.691C193.377 145.338 192.953 145.862 192.43 145.862Z" fill="#AAC9F8"/>
<path d="M192.43 125.369H125.232C124.71 125.369 124.285 124.844 124.285 124.197C124.285 123.55 124.709 123.026 125.232 123.026H192.43C192.952 123.026 193.377 123.55 193.377 124.197C193.377 124.844 192.953 125.369 192.43 125.369Z" fill="#AAC9F8"/>
<path d="M192.43 155.913H125.232C124.71 155.913 124.285 155.389 124.285 154.742C124.285 154.095 124.709 153.57 125.232 153.57H192.43C192.952 153.57 193.377 154.095 193.377 154.742C193.377 155.389 192.953 155.913 192.43 155.913Z" fill="#AAC9F8"/>
<path d="M192.43 166.16H125.232C124.71 166.16 124.285 165.636 124.285 164.989C124.285 164.341 124.709 163.817 125.232 163.817H192.43C192.952 163.817 193.377 164.341 193.377 164.989C193.377 165.636 192.953 166.16 192.43 166.16Z" fill="#AAC9F8"/>
<path d="M192.43 176.37H125.232C124.71 176.37 124.285 175.846 124.285 175.199C124.285 174.552 124.709 174.027 125.232 174.027H192.43C192.952 174.027 193.377 174.552 193.377 175.199C193.377 175.846 192.953 176.37 192.43 176.37Z" fill="#AAC9F8"/>
<path d="M119.382 94.6303H109.82V85.6702H119.382V94.6303ZM110.755 93.6949H118.446V86.6046H110.755V93.6949Z" fill="#AAC9F8"/>
<path d="M119.382 104.877H109.82V95.9171H119.382V104.877ZM110.755 103.942H118.446V96.8514H110.755V103.942Z" fill="#AAC9F8"/>
<path d="M192.43 84.459H125.232C124.71 84.459 124.285 83.9347 124.285 83.2876C124.285 82.6406 124.709 82.1162 125.232 82.1162H192.43C192.952 82.1162 193.377 82.6406 193.377 83.2876C193.377 83.9347 192.953 84.459 192.43 84.459Z" fill="#AAC9F8"/>
<path d="M119.382 84.459H109.82V75.4989H119.382V84.459ZM110.755 83.5236H118.446V76.4333H110.755V83.5236Z" fill="#AAC9F8"/>
<path d="M119.382 115.123H109.82V106.163H119.382V115.123ZM110.755 114.187H118.446V107.097H110.755V114.187Z" fill="#AAC9F8"/>
<path d="M119.382 125.369H109.82V116.409H119.382V125.369ZM110.755 124.433H118.446V117.343H110.755V124.433Z" fill="#AAC9F8"/>
<path d="M119.382 135.616H109.82V126.655H119.382V135.616ZM110.755 134.68H118.446V127.59H110.755V134.68Z" fill="#AAC9F8"/>
<path d="M119.382 145.862H109.82V136.902H119.382V145.862ZM110.755 144.927H118.446V137.837H110.755V144.927Z" fill="#AAC9F8"/>
<path d="M119.382 155.913H109.82V146.953H119.382V155.913ZM110.755 154.978H118.446V147.887H110.755V154.978Z" fill="#AAC9F8"/>
<path d="M119.382 166.16H109.82V157.2H119.382V166.16ZM110.755 165.224H118.446V158.134H110.755V165.224Z" fill="#AAC9F8"/>
<path d="M119.382 176.37H109.82V167.41H119.382V176.37ZM110.755 175.435H118.446V168.344H110.755V175.435Z" fill="#AAC9F8"/>
<path d="M114.415 92.8727L114.13 92.3347C113.397 90.9515 111.916 88.3004 111.901 88.2731C111.813 88.1148 111.87 87.9155 112.027 87.8274C112.186 87.7393 112.385 87.796 112.473 87.9533C112.487 87.9763 113.645 90.0528 114.422 91.4947C116.112 88.4514 118.89 83.878 118.92 83.8287C119.015 83.6746 119.215 83.6253 119.37 83.7197C119.524 83.8141 119.574 84.0154 119.48 84.1696C119.449 84.2209 116.337 89.3428 114.708 92.3379L114.416 92.8727H114.415Z" fill="#FF424D"/>
<path d="M114.415 102.66L114.13 102.122C113.397 100.739 111.916 98.0879 111.901 98.0606C111.813 97.9022 111.87 97.703 112.027 97.6149C112.186 97.5268 112.385 97.5834 112.473 97.7407C112.487 97.7638 113.645 99.8402 114.422 101.282C116.112 98.2389 118.89 93.6655 118.92 93.6162C119.015 93.462 119.215 93.4128 119.37 93.5071C119.524 93.6015 119.574 93.8029 119.48 93.957C119.449 94.0084 116.337 99.1303 114.708 102.125L114.416 102.66H114.415Z" fill="#FF424D"/>
<path d="M114.415 113.077L114.13 112.539C113.397 111.156 111.916 108.505 111.901 108.477C111.813 108.319 111.87 108.12 112.027 108.032C112.186 107.944 112.385 108 112.473 108.157C112.487 108.181 113.645 110.257 114.422 111.699C116.112 108.656 118.89 104.082 118.92 104.033C119.015 103.879 119.215 103.829 119.37 103.924C119.524 104.018 119.574 104.22 119.48 104.374C119.449 104.425 116.337 109.547 114.708 112.542L114.416 113.077H114.415Z" fill="#FF424D"/>
<path d="M114.415 123.478L114.13 122.94C113.397 121.557 111.916 118.906 111.901 118.878C111.813 118.72 111.87 118.521 112.027 118.433C112.186 118.345 112.385 118.401 112.473 118.558C112.487 118.582 113.645 120.658 114.422 122.1C116.112 119.057 118.89 114.483 118.92 114.434C119.015 114.28 119.215 114.23 119.37 114.324C119.524 114.418 119.574 114.618 119.48 114.774C119.449 114.825 116.337 119.947 114.708 122.942L114.416 123.477L114.415 123.478Z" fill="#FF424D"/>
<path d="M245.606 191H47.3935C47.1761 191 47 191.637 47 192.422V192.578C47 193.363 47.1761 194 47.3935 194H245.606C245.824 194 246 193.363 246 192.578V192.422C246 191.637 245.824 191 245.606 191H245.606Z" fill="#06616E"/>
<path d="M254.787 191.321H255.665L253.739 159.803H251.569L254.787 191.321Z" fill="#4C222E"/>
<path d="M224.141 191.321H223.264L225.19 159.803H227.359L224.141 191.321Z" fill="#4C222E"/>
<path d="M261.827 115.731H242.931L232.935 160.237L254.588 157.928L261.827 115.731Z" fill="#FEC786"/>
<path d="M218.454 155.074C218.454 155.074 243.378 155.703 250.788 155.703C251.983 155.703 253.009 154.831 253.226 153.628L259.815 117.147C259.992 116.167 260.929 115.527 261.888 115.744C262.803 115.951 263.373 116.888 263.203 117.83L255.739 159.157C255.681 159.478 255.54 159.76 255.345 159.989C254.865 160.902 253.922 161.523 252.838 161.523H218.542C216.97 161.523 215.696 160.22 215.696 158.612C215.696 157.005 216.88 155.073 218.452 155.073L218.454 155.074Z" fill="#F99247"/>
<path d="M250.788 155.845C252.05 155.845 253.134 154.923 253.362 153.653L259.951 117.172C260.03 116.735 260.273 116.358 260.636 116.113C260.999 115.867 261.432 115.786 261.858 115.882C261.932 115.899 262.007 115.851 262.024 115.774C262.04 115.698 261.993 115.622 261.919 115.605C261.418 115.492 260.909 115.589 260.483 115.877C260.057 116.165 259.771 116.607 259.679 117.121L253.09 153.602C252.884 154.737 251.916 155.561 250.788 155.561C250.711 155.561 250.649 155.625 250.649 155.702C250.649 155.78 250.711 155.844 250.788 155.844V155.845Z" fill="#21111D"/>
<path d="M238.445 161.689L251.896 161.665C255.519 161.999 255.952 158.828 255.971 158.654L256.772 154.227C256.785 154.15 256.736 154.076 256.66 154.061C256.585 154.046 256.513 154.098 256.499 154.174L255.697 158.618C255.684 158.744 255.35 161.701 251.915 161.381H251.903L238.445 161.405C238.368 161.405 238.306 161.469 238.306 161.548C238.306 161.626 238.368 161.689 238.445 161.689Z" fill="#21111D"/>
<path d="M254.547 115.873L261.159 115.863C261.236 115.863 261.298 115.799 261.298 115.722C261.298 115.643 261.236 115.58 261.159 115.58L254.547 115.59C254.471 115.59 254.409 115.654 254.409 115.731C254.409 115.81 254.471 115.873 254.547 115.873Z" fill="#21111D"/>
<path d="M246.629 130.28L244.466 131.215L242.062 132.356C242.062 132.356 238.326 133.004 238.273 132.993C238.265 132.991 238.583 133.549 238.583 133.549C233.949 134.12 219.343 134.72 216.944 134.988C215.499 135.15 214.11 136.947 213.234 138.349L214.421 139.153C214.421 139.153 227.177 138.591 227.151 138.858C227.143 138.943 226.783 140.209 226.224 141.866C234.102 142.392 245.135 142.342 247.184 139.095C248.865 136.431 247.226 132.608 246.63 130.281L246.629 130.28Z" fill="#FE9F73"/>
<path d="M197.421 187.194L207.113 187.326L207.252 178.263L197.597 177.067L197.421 187.194Z" fill="#FE9F73"/>
<path d="M227.22 155.223C227.22 155.223 235.564 155.36 241.412 155.16C243.29 155.096 244.96 155.228 245.949 155.008C250.019 154.104 251.023 141.397 246.4 133.613C241.778 125.827 225.606 149.73 225.606 149.73L227.219 155.223H227.22Z" fill="#49263E"/>
<path d="M212.121 187.537L221.813 187.669L221.953 178.607L212.298 177.411L212.121 187.537Z" fill="#FE9F73"/>
<path d="M218.236 138.217C218.236 138.217 197.74 139.527 197.148 141.894C196.556 144.261 194.861 169.426 196.129 180.162C196.129 180.162 203.905 180.697 207.624 179.796L208.529 153.619L214.668 152.914L228.732 136.007L218.236 138.217Z" fill="#35182E"/>
<path d="M228.083 137.83C228.083 137.83 212.276 142.29 211.685 144.657C211.093 147.024 209.409 169.482 210.677 180.219C210.677 180.219 219.039 180.698 222.758 179.796L223.761 155.102L227.368 155.228L236.114 139.84L228.084 137.83H228.083Z" fill="#49263E"/>
<path d="M217.74 180.51C221.435 180.51 222.753 179.953 222.815 179.926L222.897 179.89L223.867 155.051L222.34 155.771L222.461 156.029L223.564 155.51L222.619 179.695C222.219 179.834 220.302 180.387 215.776 180.178L215.762 180.463C216.486 180.497 217.143 180.511 217.739 180.511L217.74 180.51Z" fill="#21111D"/>
<path d="M221.205 175.155C221.599 173.633 221.713 158.796 221.717 158.165L221.432 158.163C221.431 158.317 221.314 173.595 220.929 175.082L221.205 175.154V175.155Z" fill="#21111D"/>
<path d="M206.516 154.176C208.39 153.57 210.97 153.479 210.996 153.478L210.987 153.193C210.96 153.193 208.341 153.286 206.428 153.905L206.516 154.176Z" fill="#21111D"/>
<path d="M202.299 180.458C205.457 180.458 207.636 179.94 207.659 179.935L207.764 179.909L208.679 153.44L207.511 154.381L207.69 154.603L208.373 154.054L207.487 179.682C207.004 179.786 204.897 180.202 202.023 180.172L202.02 180.457C202.113 180.458 202.207 180.458 202.299 180.458Z" fill="#21111D"/>
<path d="M206.275 175.706C206.667 173.409 206.293 157.855 206.277 157.194L205.992 157.2C205.996 157.361 206.381 173.386 205.994 175.657L206.275 175.705V175.706Z" fill="#21111D"/>
<path d="M233.499 155.489C237.14 155.489 241.505 155.366 246.412 154.997L246.391 154.713C231.77 155.816 221.965 154.725 221.868 154.713L221.835 154.995C221.9 155.003 226.27 155.488 233.499 155.488V155.489Z" fill="#21111D"/>
<path d="M228.493 129.86C228.211 129.855 216.857 134.739 216.857 134.739L219.145 139.118L225.517 137.719L228.493 129.86Z" fill="#7FC6A6"/>
<path d="M244.945 109.509C244.945 109.509 249.774 109.34 252.079 110.646C255.518 112.595 254.293 123.755 254.293 123.755C254.293 123.755 251.37 122.161 251.193 121.629C251.015 121.097 244.945 109.509 244.945 109.509Z" fill="#7FC6A6"/>
<path d="M246.116 133.734C246.111 133.736 246.104 133.738 246.098 133.739L242.546 134.552C242.475 134.569 242.403 134.524 242.387 134.453C242.37 134.381 242.415 134.31 242.486 134.293L246.038 133.48C246.11 133.464 246.181 133.509 246.198 133.58C246.213 133.645 246.177 133.711 246.116 133.734Z" fill="#21111D"/>
<path d="M247.972 131.623L245.81 132.559L243.405 133.7C243.405 133.7 239.669 134.348 239.616 134.336C239.609 134.334 239.926 134.892 239.926 134.892C235.292 135.463 220.686 136.063 218.288 136.331C216.842 136.492 215.453 138.29 214.577 139.692L215.764 140.495C215.764 140.495 228.521 139.933 228.495 140.2C228.486 140.285 228.126 141.551 227.567 143.208C235.445 143.735 246.479 143.684 248.528 140.437C250.209 137.774 248.57 133.95 247.973 131.623H247.972Z" fill="#F9B59D"/>
<path d="M249.618 110.381C246.874 110.001 239.634 109.739 239.634 109.739C239.634 109.739 238.674 109.991 238.98 109.849C230.985 111.261 230.101 117.191 230.101 117.191L226.198 134.325L221.854 134.559C220.449 137.223 221.481 144.407 221.481 144.407L242.518 146.778C242.518 146.778 247.065 147.528 250.91 142.595C253.455 139.332 254.32 129.313 254.319 121.993C254.319 121.993 253.881 110.971 249.617 110.381H249.618Z" fill="#7FC6A6"/>
<path d="M190.694 123.648H210.724L217.71 141.438H197.681L190.694 123.648Z" fill="#111111"/>
<path d="M217.71 141.438H216.665L209.68 123.648H210.724L217.71 141.438Z" fill="#111111"/>
<path d="M203.789 131.977C204.067 132.793 203.864 133.602 203.335 133.781C202.807 133.961 202.153 133.444 201.875 132.627C201.598 131.81 201.801 131.001 202.33 130.822C202.858 130.643 203.511 131.16 203.789 131.977Z" fill="#E7EAEF"/>
<path d="M224.331 140.001H216.849V141.438H224.331C224.728 141.438 225.05 141.116 225.05 140.72C225.05 140.323 224.728 140.001 224.331 140.001Z" fill="#111111"/>
<path d="M222.436 140.495H217.71V140.721H222.436V140.495Z" fill="#111111"/>
<path d="M242.547 134.62C242.523 134.63 242.497 134.632 242.469 134.626C242.398 134.609 242.354 134.537 242.371 134.466C242.393 134.373 244.592 125.026 245.527 119.144C245.539 119.071 245.607 119.022 245.68 119.034C245.752 119.045 245.801 119.113 245.79 119.186C244.852 125.077 242.652 134.434 242.63 134.527C242.619 134.572 242.588 134.606 242.548 134.62H242.547Z" fill="#21111D"/>
<path d="M228.94 134.466C228.913 134.477 228.883 134.478 228.853 134.468C228.783 134.446 228.744 134.372 228.766 134.302C228.799 134.198 232.061 123.847 232.743 120.269C232.756 120.197 232.827 120.149 232.898 120.163C232.97 120.177 233.018 120.246 233.004 120.318C232.32 123.912 229.053 134.277 229.02 134.381C229.007 134.421 228.977 134.451 228.94 134.465V134.466Z" fill="#21111D"/>
<path d="M242.201 114.76C242.098 114.771 241.993 114.78 241.887 114.787C241.827 114.792 241.774 114.745 241.77 114.685C241.766 114.624 241.81 114.571 241.873 114.567C246.448 114.246 247.298 110.896 247.304 110.862C247.316 110.803 247.371 110.762 247.431 110.773C247.49 110.782 247.53 110.837 247.522 110.897C247.517 110.931 246.673 114.299 242.202 114.761L242.201 114.76Z" fill="#21111D"/>
<path d="M228.007 131.996C227.947 132.018 227.879 131.996 227.845 131.939L226.954 130.411L226.966 130.359L229.971 117.165C229.99 117.045 230.25 115.508 231.554 113.813C232.775 112.223 235.185 110.202 239.725 109.598C239.797 109.589 239.865 109.64 239.874 109.713C239.883 109.785 239.832 109.852 239.76 109.862C235.318 110.452 232.965 112.418 231.773 113.963C230.482 115.637 230.235 117.194 230.232 117.209L230.23 117.218L227.235 130.366L228.074 131.804C228.111 131.866 228.09 131.948 228.026 131.985C228.019 131.989 228.012 131.992 228.006 131.994L228.007 131.996Z" fill="#21111D"/>
<path d="M223.302 132.045C223.235 132.07 223.159 132.037 223.133 131.969C223.105 131.901 223.139 131.823 223.207 131.796L227.045 130.265C227.115 130.241 227.191 130.271 227.218 130.34C227.246 130.408 227.212 130.485 227.144 130.513L223.306 132.044C223.306 132.044 223.305 132.044 223.303 132.044L223.302 132.045Z" fill="#21111D"/>
<path d="M221.854 134.558C221.854 134.558 220.466 137.835 221.481 144.406L226.558 141.682L225.05 136.773L221.854 134.558Z" fill="#7FC6A6"/>
<path d="M247.135 134.738C247.119 134.744 247.103 134.747 247.084 134.746C246.894 134.74 228.097 134.176 221.947 134.683C221.796 135.087 221.102 137.173 221.296 140.989C221.299 141.062 221.244 141.125 221.17 141.129C221.097 141.133 221.035 141.076 221.031 141.003C220.811 136.678 221.694 134.591 221.733 134.505L221.764 134.433L221.843 134.426C227.921 133.906 246.9 134.476 247.091 134.481C247.164 134.483 247.222 134.545 247.22 134.618C247.218 134.674 247.183 134.72 247.134 134.739L247.135 134.738Z" fill="#21111D"/>
<path d="M238.542 99.7731L238.392 105.555C238.392 105.555 238.266 107.411 239.887 107.686L239.518 110.157C239.382 111.076 239.91 111.973 240.787 112.276C241.216 112.424 241.731 112.538 242.316 112.553C244.175 112.601 245.218 111.233 245.391 110.54C245.564 109.847 245.186 106.505 245.186 106.505L245.285 104.87L245.238 98.5241L238.542 99.7721V99.7731Z" fill="#FE9F73"/>
<path d="M243.698 106.205C243.698 106.205 243.508 109.313 239.615 109.509L239.887 107.686C239.887 107.686 242.393 108.257 243.698 106.205Z" fill="#F07162"/>
<path d="M242.95 102.922C242.969 102.922 242.989 102.916 243.004 102.902C243.036 102.874 243.038 102.825 243.01 102.793C242.999 102.782 241.962 101.665 240.969 102.424C240.935 102.45 240.928 102.499 240.954 102.532C240.98 102.567 241.029 102.573 241.062 102.547C241.943 101.875 242.855 102.856 242.894 102.898C242.909 102.915 242.929 102.923 242.95 102.923V102.922Z" fill="#49263E"/>
<path d="M245.64 102.179L243.96 102.483L243.649 102.788C243.649 102.788 243.866 99.9902 244.196 99.447C244.525 98.9048 245.64 102.179 245.64 102.179Z" fill="#49263E"/>
<path d="M239.77 102.375C239.792 102.375 239.814 102.367 239.829 102.35C239.857 102.318 239.855 102.269 239.824 102.241C239.793 102.212 239.071 101.562 238.593 101.95C238.56 101.977 238.556 102.026 238.582 102.059C238.609 102.093 238.657 102.097 238.691 102.071C239.065 101.767 239.712 102.35 239.719 102.356C239.733 102.37 239.751 102.376 239.769 102.376L239.77 102.375Z" fill="#49263E"/>
<path d="M241.376 103.194C241.373 103.322 241.473 103.429 241.602 103.432C241.73 103.435 241.837 103.335 241.84 103.206C241.843 103.078 241.743 102.971 241.614 102.967C241.486 102.964 241.379 103.065 241.376 103.194Z" fill="black"/>
<path d="M238.912 102.898C238.909 103.026 239.01 103.133 239.139 103.136C239.267 103.139 239.374 103.039 239.377 102.91C239.38 102.781 239.278 102.675 239.15 102.672C239.022 102.669 238.915 102.769 238.912 102.898Z" fill="black"/>
<path d="M243.297 103.164C243.277 103.933 243.885 104.574 244.655 104.594C245.425 104.614 246.065 104.006 246.085 103.236C246.105 102.466 245.497 101.825 244.727 101.806C243.958 101.786 243.317 102.394 243.297 103.164Z" fill="#FE9F73"/>
<path d="M244.915 103.979C245.204 103.987 245.404 103.774 245.473 103.559C245.555 103.304 245.475 103.051 245.27 102.916C244.965 102.717 244.683 102.832 244.536 102.922C244.6 102.766 244.698 102.653 244.827 102.587C245.106 102.443 245.444 102.562 245.447 102.563C245.467 102.57 245.489 102.56 245.496 102.54C245.503 102.52 245.493 102.498 245.473 102.49C245.458 102.485 245.101 102.358 244.791 102.518C244.613 102.61 244.489 102.778 244.422 103.017L244.385 103.151L244.487 103.056C244.502 103.042 244.842 102.728 245.226 102.981C245.439 103.122 245.453 103.367 245.398 103.535C245.343 103.709 245.182 103.909 244.917 103.902C244.915 103.902 244.912 103.902 244.909 103.902C244.888 103.902 244.87 103.918 244.869 103.939C244.869 103.96 244.885 103.978 244.906 103.978C244.909 103.978 244.911 103.978 244.914 103.978L244.915 103.979Z" fill="#F07162"/>
<path d="M240.516 104.741C240.533 104.741 240.547 104.731 240.554 104.716C240.561 104.696 240.55 104.674 240.53 104.666L239.761 104.389L240.053 102.569C240.056 102.548 240.043 102.528 240.021 102.525C240 102.521 239.98 102.535 239.977 102.557L239.674 104.442L240.504 104.741C240.504 104.741 240.513 104.743 240.517 104.743L240.516 104.741Z" fill="#F07162"/>
<path d="M241.098 105.511C241.074 105.505 239.566 105.431 239.566 105.431C239.566 105.431 239.739 106.06 240.3 106.089C240.861 106.119 241.098 105.511 241.098 105.511Z" fill="#FBFDFC"/>
<path d="M245.64 102.179C245.64 102.179 246.181 99.4763 245.376 98.4434C244.572 97.4104 239.848 95.5154 239.257 96.0062C238.666 96.497 239.228 97.1262 239.228 97.1262C239.228 97.1262 237.329 96.4624 236.852 98.1497C236.374 99.8371 240.474 100.667 242.952 99.9357C242.952 99.9357 244.565 100.452 245.641 102.179H245.64Z" fill="#49263E"/>
<path d="M246.183 146.383C245.871 146.5 245.578 146.592 245.306 146.665C243.68 147.096 242.544 146.917 242.496 146.909C242.423 146.897 242.374 146.828 242.387 146.757C242.398 146.685 242.466 146.635 242.539 146.647C242.55 146.649 243.677 146.824 245.252 146.405C246.704 146.018 248.847 145.027 250.806 142.514C253.266 139.359 254.164 129.645 254.187 122.287C254.187 122.213 254.246 122.153 254.32 122.154C254.393 122.154 254.452 122.214 254.452 122.288C254.43 129.688 253.516 139.469 251.015 142.677C249.37 144.788 247.593 145.85 246.182 146.384L246.183 146.383Z" fill="#21111D"/>
<path d="M207.204 189.219H198.831L195.436 185.521L189.228 189.219H187.891C187.431 189.219 187.008 189.53 186.921 189.983C186.805 190.592 187.268 191.125 187.855 191.125H207.322C207.465 191.125 207.581 191.009 207.581 190.866V189.598C207.581 189.39 207.412 189.22 207.203 189.22L207.204 189.219Z" fill="#212121"/>
<path d="M207.13 189.23V185.793C207.13 185.793 205.721 183.894 203.573 184.863C203.573 184.863 200.326 187.167 197.464 184.379L190.355 187.532C190.355 187.532 188.407 188.184 187.878 189.229H207.13V189.23Z" fill="#111111"/>
<path d="M207.202 185.793H207.059V189.212H207.202V185.793Z" fill="#E7EAEF"/>
<path d="M200.663 185.83C200.392 185.83 200.227 185.807 200.222 185.806L200.243 185.666C200.259 185.668 201.937 185.904 203.532 184.806L203.613 184.923C202.47 185.71 201.284 185.831 200.662 185.831L200.663 185.83Z" fill="#E7EAEF"/>
<path d="M206.245 187.838L205.336 188.449L205.416 188.568L206.324 187.956L206.245 187.838Z" fill="#E7EAEF"/>
<path d="M205.575 187.7L204.667 188.312L204.747 188.431L205.655 187.818L205.575 187.7Z" fill="#E7EAEF"/>
<path d="M187.194 190.96C186.964 190.764 186.832 190.48 186.832 190.178C186.832 189.613 187.291 189.154 187.856 189.154H207.105C207.408 189.154 207.654 189.4 207.654 189.703V190.653H207.511V189.703C207.511 189.479 207.329 189.296 207.104 189.296H187.855C187.369 189.296 186.973 189.692 186.973 190.178C186.973 190.437 187.087 190.683 187.285 190.85L187.193 190.96H187.194Z" fill="#E7EAEF"/>
<path d="M187.92 189.256L187.791 189.196C187.807 189.162 188.197 188.363 189.652 187.742C191.081 187.133 197.37 184.342 197.434 184.315L197.492 184.445C197.429 184.473 191.139 187.263 189.708 187.873C188.308 188.47 187.925 189.249 187.92 189.256Z" fill="#E7EAEF"/>
<path d="M222.082 189.219H213.709L210.314 185.521L204.106 189.219H202.769C202.309 189.219 201.886 189.53 201.799 189.983C201.682 190.592 202.146 191.125 202.733 191.125H222.2C222.343 191.125 222.459 191.009 222.459 190.866V189.598C222.459 189.39 222.29 189.22 222.081 189.22L222.082 189.219Z" fill="#212121"/>
<path d="M222.008 189.23V185.793C222.008 185.793 220.598 183.894 218.451 184.863C218.451 184.863 215.204 187.167 212.341 184.379L205.233 187.532C205.233 187.532 203.285 188.184 202.756 189.229H222.008V189.23Z" fill="#111111"/>
<path d="M222.08 185.793H221.937V189.212H222.08V185.793Z" fill="#E7EAEF"/>
<path d="M215.541 185.83C215.269 185.83 215.105 185.807 215.1 185.806L215.12 185.666C215.137 185.668 216.815 185.904 218.41 184.806L218.491 184.923C217.348 185.71 216.162 185.831 215.54 185.831L215.541 185.83Z" fill="#E7EAEF"/>
<path d="M221.104 187.868L220.195 188.479L220.275 188.598L221.183 187.987L221.104 187.868Z" fill="#E7EAEF"/>
<path d="M220.453 187.701L219.545 188.313L219.625 188.431L220.533 187.819L220.453 187.701Z" fill="#E7EAEF"/>
<path d="M202.072 190.96C201.842 190.764 201.71 190.48 201.71 190.178C201.71 189.613 202.169 189.154 202.734 189.154H221.983C222.286 189.154 222.533 189.4 222.533 189.703V190.653H222.39V189.703C222.39 189.479 222.208 189.296 221.983 189.296H202.734C202.248 189.296 201.852 189.692 201.852 190.178C201.852 190.437 201.966 190.683 202.164 190.85L202.072 190.96Z" fill="#E7EAEF"/>
<path d="M202.798 189.256L202.669 189.196C202.685 189.162 203.075 188.363 204.53 187.742C205.959 187.133 212.248 184.342 212.312 184.315L212.37 184.445C212.307 184.473 206.017 187.263 204.585 187.873C203.185 188.47 202.8 189.249 202.797 189.256H202.798Z" fill="#E7EAEF"/>
<path d="M108.387 72.184C104.901 72.6811 100.361 69.4469 96.2569 68.9666C92.1523 68.4873 91.3406 62.4584 91.3406 62.4584C91.3406 62.4584 98.823 62.9911 100.302 63.7619C101.232 64.2464 105.249 66.2116 108.154 67.6851C109.425 68.33 110.483 68.8806 110.975 69.1711C111.052 69.2162 111.114 69.2539 111.162 69.2864C111.169 69.2917 111.178 69.2969 111.185 69.3022C111.233 69.3357 111.262 69.3598 111.27 69.3756C111.449 69.6933 111.873 71.6858 108.387 72.1829V72.184Z" fill="#F49D75"/>
<path d="M110.975 69.1732C111.052 69.2183 111.114 69.256 111.162 69.2885C111.023 69.5266 110.861 69.7699 110.673 70.0132C110.482 70.2607 110.114 70.3152 109.818 70.1506C109.803 70.1422 109.788 70.1348 109.775 70.1254L108.211 69.1187C108.211 69.1187 107.988 68.8858 108.035 68.2503C108.049 68.0532 108.097 67.8592 108.154 67.6861C109.425 68.3311 110.484 68.8816 110.975 69.1732Z" fill="#F07162"/>
<path d="M111.333 68.9792C111.329 68.9739 111.325 68.9676 111.319 68.9613C111.325 68.9666 111.329 68.9729 111.333 68.9792Z" fill="#F07162"/>
<path d="M111.162 69.2885C111.169 69.2938 111.178 69.299 111.185 69.3043C111.055 69.5371 110.899 69.7793 110.713 70.0195C110.545 70.2376 110.129 70.3509 109.873 70.1873L109.814 70.1495H109.818C110.038 70.2124 110.359 70.0792 110.492 69.9062C110.683 69.6587 110.841 69.4112 110.975 69.1721C111.051 69.2172 111.114 69.255 111.161 69.2875L111.162 69.2885Z" fill="#FDC9BC"/>
<path d="M111.179 68.8072C111.179 68.8072 111.171 68.7988 111.166 68.7967C111.166 68.7967 111.175 68.803 111.178 68.8072H111.179Z" fill="#FDC9BC"/>
<path d="M109.695 72.0036L109.604 71.775C110.488 71.4247 111.033 70.9727 111.223 70.4327C111.385 69.9712 111.229 69.5769 111.178 69.4668C110.499 69.1197 100.552 64.0356 99.3568 63.5773C98.1361 63.1096 91.3982 62.5863 91.3301 62.5821L91.349 62.3367C91.6279 62.3587 98.1907 62.8673 99.4449 63.3476C100.689 63.8238 110.891 69.0442 111.326 69.2665L111.358 69.2833L111.376 69.3147C111.389 69.3368 111.683 69.8601 111.457 70.5103C111.244 71.1227 110.65 71.625 109.695 72.0046V72.0036Z" fill="black"/>
<path d="M109.43 80.3816C104.917 80.1436 100.004 74.9483 94.9554 73.326C89.9059 71.7058 90.3768 63.915 90.3768 63.915C90.3768 63.915 99.6651 66.4382 101.337 67.7763C102.346 68.5838 106.608 71.819 109.861 74.3558C111.445 75.5923 112.792 76.6619 113.403 77.2041C113.493 77.2838 113.567 77.3509 113.622 77.4065C113.635 77.4191 113.646 77.4306 113.658 77.4422C113.715 77.4988 113.747 77.5397 113.754 77.5617C113.9 78.0063 113.941 80.6208 109.429 80.3816H109.43Z" fill="#F49D75"/>
<path d="M113.403 77.2031C113.493 77.2828 113.567 77.3499 113.622 77.4054C113.528 77.5428 113.428 77.6802 113.323 77.8165C113.056 78.1647 112.537 78.2413 112.119 78.0074C112.101 77.9969 112.082 77.9854 112.064 77.9728L109.871 76.5612C109.871 76.5612 109.556 76.2341 109.623 75.3427C109.649 74.9882 109.749 74.6411 109.862 74.3527C111.446 75.5891 112.793 76.6588 113.404 77.201L113.403 77.2031Z" fill="#F07162"/>
<path d="M114.249 76.3683C114.24 76.3536 114.228 76.34 114.218 76.3263C114.228 76.34 114.239 76.3536 114.249 76.3683Z" fill="#F07162"/>
<path d="M113.623 77.4054C113.636 77.418 113.647 77.4296 113.659 77.4411C113.571 77.569 113.48 77.697 113.38 77.8249C113.144 78.1301 112.558 78.2906 112.2 78.0609L112.119 78.0085C112.428 78.1007 112.881 77.913 113.07 77.6697C113.189 77.5145 113.3 77.3583 113.403 77.2041C113.493 77.2838 113.567 77.3509 113.623 77.4065V77.4054Z" fill="#FDC9BC"/>
<path d="M114.033 76.125C114.028 76.1208 114.023 76.1155 114.018 76.1103C114.018 76.1103 114.028 76.1197 114.033 76.125Z" fill="#FDC9BC"/>
<path d="M110.522 80.5264L110.517 80.281C112.24 80.2411 113.03 79.484 113.388 78.8558C113.725 78.2654 113.71 77.7347 113.647 77.6225C113.537 77.4673 111.813 76.0159 101.527 68.0867L101.099 67.7564C100.099 66.9845 94.2759 65.1776 94.2171 65.1588L94.2895 64.9239C94.5307 64.9983 100.215 66.7622 101.249 67.5613L101.677 67.8917C113.647 77.1181 113.809 77.4076 113.862 77.5019C114.001 77.7494 113.941 78.3839 113.602 78.9775C113.284 79.5364 112.458 80.4823 110.523 80.5274L110.522 80.5264Z" fill="black"/>
<path d="M101.839 93.8375C101.839 93.8375 101.833 93.8564 101.816 93.891C101.667 94.1993 100.705 95.6811 96.7823 93.783C92.4333 91.6793 91.7936 79.4137 90.6075 78.1154C89.4214 76.8171 85.9859 69.4081 79.097 72.3339C79.097 72.3339 75.2965 75.0364 75.523 77.8679C75.523 77.8679 80.9427 84.0122 81.8792 84.7086C82.7014 85.321 87.862 88.9579 86.7336 93.2974C86.5407 94.0378 85.88 94.5024 85.1774 94.5129C85.1532 94.5129 85.1302 94.5129 85.1071 94.5129C84.9676 94.5097 84.8292 94.4877 84.6918 94.4457C84.5828 94.4143 84.4747 94.3702 84.3699 94.3126C83.0747 93.6047 81.1671 92.5392 79.548 91.5356C78.4552 90.8581 77.4946 90.208 76.9398 89.7151C76.1921 89.0512 74.5887 87.6638 72.8919 86.204C69.7248 83.4764 66.2284 81.1629 62.5003 79.2763C58.897 77.4526 53.9356 74.3401 50.3239 69.7132C44.8948 62.7562 41.4047 54.1013 41.4047 54.1013L59.9625 42.2132L65.4933 51.6379C65.4933 51.6379 91.0406 61.8344 92.9996 63.0561C94.9586 64.2768 97.6684 75.3636 98.1718 76.3987C98.4906 77.0541 99.8812 83.8916 100.855 88.8069C101.293 91.0113 101.646 92.8286 101.782 93.5292C101.815 93.698 101.835 93.8018 101.841 93.8312C101.841 93.8375 101.842 93.8406 101.842 93.8406L101.839 93.8375Z" fill="#F49D75"/>
<path d="M113.802 89.3606C113.796 89.8745 112.909 92.6084 108.3 90.7585C103.692 88.9086 100.424 81.7586 95.7472 78.2801C91.07 74.8015 94.3262 66.864 94.3262 66.864C94.3262 66.864 103.092 72.787 104.357 74.7732C105.115 75.9635 108.364 80.7907 110.841 84.5744C111.952 86.2691 112.907 87.7551 113.414 88.6098C113.473 88.7115 113.527 88.8038 113.574 88.8866C113.582 88.9002 113.59 88.9128 113.596 88.9265C113.729 89.1624 113.802 89.3145 113.801 89.3627L113.802 89.3606Z" fill="#F49D75"/>
<path d="M75.6426 78.0672L75.3972 78.0577C75.3983 78.0168 75.5933 73.9814 79.6004 72.1997L79.7 72.4241C75.8366 74.1419 75.6447 78.0273 75.6436 78.0661L75.6426 78.0672Z" fill="black"/>
<path d="M85.4626 93.8973C85.3483 94.1773 85.2287 94.4468 85.1039 94.7048C84.9645 94.7016 84.826 94.6796 84.6887 94.6377C84.5796 94.6062 84.4716 94.5621 84.3667 94.5045C83.0716 93.7966 81.164 92.7311 79.5448 91.7275C79.7063 91.5681 79.8846 91.4161 80.0775 91.2829C81.0665 90.6002 81.659 90.7438 81.659 90.7438L84.7872 92.3274C84.8135 92.341 84.8397 92.3557 84.8648 92.3693C85.4196 92.6955 85.6828 93.3499 85.4616 93.8973H85.4626Z" fill="#F07162"/>
<path d="M85.5108 93.956C85.4049 94.2171 85.2917 94.4678 85.1742 94.7058C85.1501 94.7058 85.127 94.7058 85.1039 94.7058C84.9645 94.7027 84.826 94.6807 84.6887 94.6387C84.8407 94.3451 84.9844 94.0336 85.1186 93.7043C85.2728 93.3205 85.1826 92.6672 84.8669 92.3714L84.9823 92.4291C85.492 92.6881 85.7049 93.4757 85.5108 93.9571V93.956Z" fill="#FDC9BC"/>
<path d="M101.835 94.0231C101.771 94.0462 101.704 94.0693 101.638 94.0902C101.205 94.2318 100.716 93.9948 100.496 93.5522C100.485 93.5313 100.476 93.5103 100.467 93.4904L99.4124 91.0029C99.4124 91.0029 99.3327 90.5393 99.9095 89.8147C100.186 89.4665 100.55 89.1907 100.851 88.9998C101.289 91.2042 101.642 93.0216 101.778 93.7221C101.811 93.891 101.831 93.9948 101.837 94.0242L101.835 94.0231Z" fill="#F07162"/>
<path d="M103.276 93.3886C103.276 93.3677 103.276 93.3467 103.274 93.3257C103.275 93.3467 103.276 93.3677 103.277 93.3886H103.276Z" fill="#F07162"/>
<path d="M101.837 94.0326C101.837 94.0326 101.831 94.0514 101.814 94.086C101.77 94.1018 101.726 94.1165 101.682 94.1311C101.302 94.2559 100.708 94.0514 100.536 93.6456L100.497 93.5533C100.708 93.8123 101.206 93.9162 101.508 93.8165C101.6 93.7872 101.69 93.7547 101.777 93.7222C101.81 93.891 101.83 93.9948 101.836 94.0242C101.836 94.0305 101.838 94.0326 101.838 94.0326H101.837Z" fill="#FDC9BC"/>
<path d="M103.232 93.0499C103.232 93.0499 103.23 93.0384 103.228 93.0321C103.23 93.0384 103.23 93.0436 103.231 93.0499H103.232Z" fill="#FDC9BC"/>
<path d="M113.415 88.6076C113.474 88.7094 113.528 88.8016 113.575 88.8845C113.322 89.0953 113.049 89.3029 112.752 89.5022C112.374 89.7549 111.839 89.6605 111.506 89.2945C111.506 89.2945 111.506 89.2945 111.504 89.2945C111.489 89.2778 111.475 89.261 111.461 89.2431L109.769 87.1363C109.769 87.1363 109.567 86.7116 109.926 85.8569C110.157 85.3032 110.577 84.8344 110.842 84.5743C111.953 86.269 112.908 87.755 113.415 88.6097V88.6076Z" fill="#F07162"/>
<path d="M114.138 88.3822C114.138 88.3822 114.138 88.3822 114.136 88.3822C114.131 88.3623 114.125 88.3413 114.117 88.3214C114.125 88.3402 114.132 88.3612 114.137 88.3811L114.138 88.3822Z" fill="#F07162"/>
<path d="M113.597 88.9243C113.358 89.1299 113.094 89.3333 112.803 89.5284C112.472 89.7518 111.844 89.7161 111.567 89.3721L111.504 89.2935C111.504 89.2935 111.504 89.2935 111.506 89.2935C111.78 89.4854 112.286 89.4497 112.55 89.2725C112.868 89.0586 113.156 88.8331 113.415 88.6076C113.474 88.7094 113.528 88.8016 113.575 88.8845C113.583 88.8981 113.591 88.9107 113.597 88.9243Z" fill="#FDC9BC"/>
<path d="M85.0452 94.7645C84.739 94.7614 84.4349 94.6827 84.1549 94.5296C82.0134 93.3572 78.2161 91.2095 76.8538 89.9993C76.2057 89.4235 74.8445 88.2427 72.808 86.4893C69.6944 83.8088 66.2064 81.4838 62.4405 79.5783C58.8771 77.7756 53.8643 74.6463 50.2222 69.9807L50.4162 69.8297C54.03 74.4597 59.0102 77.5669 62.5517 79.3581C66.3354 81.272 69.8412 83.6085 72.9695 86.3015C75.0071 88.056 76.3693 89.2379 77.0185 89.8147C78.3629 91.0092 82.1414 93.1464 84.2744 94.3136C84.738 94.5674 85.2791 94.5852 85.7604 94.365C86.2292 94.149 86.5595 93.7389 86.6644 93.2387C87.2202 90.6044 85.5706 87.7792 81.8928 85.0672L81.8037 85.0012C80.8683 84.3059 75.651 78.3944 75.4287 78.1437C74.2258 76.7899 73.994 74.381 73.9846 74.2793L74.23 74.2573C74.2321 74.2814 74.4639 76.6881 75.6132 77.9812C75.6678 78.0431 81.0361 84.1245 81.9505 84.8051L82.0397 84.8711C82.5724 85.2644 83.9892 86.3078 85.1826 87.7865C86.7001 89.6658 87.28 91.5178 86.9056 93.2911C86.784 93.8679 86.4043 94.3419 85.8632 94.5905C85.601 94.7111 85.3231 94.7698 85.0463 94.7666L85.0452 94.7645Z" fill="black"/>
<path d="M111.162 91.5283C110.633 91.523 110.033 91.4307 109.36 91.2525L109.423 91.0144C111.031 91.4412 112.197 91.3605 112.889 90.7743C113.575 90.1943 113.567 89.2861 113.558 89.1131C113.108 88.4231 104.523 75.2577 103.811 74.2887C103.091 73.3103 95.2858 67.6725 95.2071 67.6159L95.3508 67.4166C95.6738 67.6494 103.266 73.1341 104.008 74.1429C104.74 75.1392 113.413 88.4409 113.782 89.0061L113.798 89.0313L113.802 89.0617C113.806 89.11 113.901 90.2405 113.048 90.962C112.591 91.3479 111.96 91.5367 111.162 91.5283Z" fill="black"/>
<path d="M55.3031 73.368C53.8108 72.3266 53.5056 70.3928 53.493 70.311L53.7017 70.2795C53.7049 70.2984 54.0069 72.206 55.4237 73.1949L55.3031 73.368Z" fill="black"/>
<path d="M57.4529 73.8829C55.7519 73.2369 54.9843 71.4352 54.9528 71.3587L55.1479 71.2769C55.1552 71.2947 55.9134 73.0712 57.5284 73.6847L57.4529 73.8818V73.8829Z" fill="black"/>
<path d="M37.0012 43.7255L41.5683 54.6351L67.6746 53.0715L56.9013 28.9346C48.969 32.3597 41.7403 38.2754 37.0012 43.7265V43.7255Z" fill="#F49D75"/>
<path d="M57.5656 29.9707L57.2763 30.0995L65.0163 47.492L65.3057 47.3633L57.5656 29.9707Z" fill="#0D171E"/>
<path d="M45.8596 63.4777C43.307 60.0799 37.6084 45.3142 37.3662 44.6871L37.6619 44.5728C37.7206 44.7259 43.587 59.9247 46.1123 63.2868L45.8585 63.4766L45.8596 63.4777Z" fill="#0D171E"/>
<path d="M64.1744 50.5831L57.6346 55.9397L103.466 111.895L110.006 106.539L64.1744 50.5831Z" fill="#FEC786"/>
<path d="M62.1616 52.2317L59.6466 54.2917L105.478 110.247L107.993 108.187L62.1616 52.2317Z" fill="#F99247"/>
<path d="M67.6188 54.7897L61.0789 60.1463L62.4279 61.7932L68.9677 56.4366L67.6188 54.7897Z" fill="#4CB7D8"/>
<path d="M58.445 50.2693C60.2509 48.7896 62.9146 49.055 64.3932 50.8608L67.6138 54.7934L61.0741 60.1502L57.8535 56.2176C56.3749 54.4117 56.6391 51.748 58.445 50.2693Z" fill="#FC4963"/>
<path d="M113.51 117.5L110.001 106.545C109.554 105.999 108.742 105.925 108.186 106.38C107.63 106.835 107.542 107.647 107.989 108.192C107.542 107.647 106.616 107.665 105.922 108.234C105.227 108.803 105.026 109.706 105.473 110.253C105.026 109.707 104.213 109.633 103.658 110.089C103.102 110.544 103.014 111.356 103.46 111.901L113.51 117.5Z" fill="#F7D6B2"/>
<path d="M110.001 106.545C110.001 106.545 108.168 106.615 107.989 108.193L107.033 107.027L109.046 105.378L110.001 106.545Z" fill="#FEC786"/>
<path d="M105.474 110.253C105.474 110.253 103.641 110.323 103.461 111.901L102.506 110.735L104.519 109.087L105.474 110.253Z" fill="#FEC786"/>
<path d="M107.989 108.193C107.989 108.193 105.999 107.989 105.473 110.254L104.431 108.983L106.947 106.922L107.989 108.193Z" fill="#F99247"/>
<path d="M112.345 113.861C112.345 113.861 110.713 113.897 110.173 115.64L113.511 117.499L112.346 113.86L112.345 113.861Z" fill="#FF424D"/>
<path d="M58.3527 50.1582C56.6266 51.5855 56.5531 53.1847 56.7954 54.2764C57.0555 55.4489 57.712 56.2731 57.7403 56.3078L103.366 112.014L103.39 112.027L113.758 117.803L111.498 110.748L111.224 110.836L113.261 117.197L103.555 111.789L57.9647 56.1263C57.9594 56.119 57.3187 55.3136 57.0754 54.2041C56.7524 52.7348 57.2442 51.4481 58.5373 50.3795L58.3538 50.1582H58.3527Z" fill="black"/>
<path d="M74.6771 63.1774L74.4539 63.36L100.813 95.5765L101.037 95.3938L74.6771 63.1774Z" fill="black"/>
<path d="M67.9666 61.6475L67.8645 61.9172L70.8617 63.0521L70.9638 62.7824L67.9666 61.6475Z" fill="black"/>
<path d="M61.5377 52.3935L61.4355 52.6632L63.1381 53.3079L63.2402 53.0382L61.5377 52.3935Z" fill="black"/>
<path d="M60.7137 51.0306L60.6116 51.3003L62.3142 51.945L62.4163 51.6753L60.7137 51.0306Z" fill="black"/>
<path d="M67.3922 60.0559L67.2901 60.3256L70.2872 61.4605L70.3894 61.1908L67.3922 60.0559Z" fill="black"/>
<path d="M67.5116 54.6748L60.9812 60.0428L61.1636 60.2648L67.6941 54.8968L67.5116 54.6748Z" fill="black"/>
<path d="M101.704 94.3147L101.162 94.2717L99.0946 92.4039L97.0203 87.9522C97.0203 87.9522 93.8071 84.6698 93.7526 84.6687C93.697 84.6687 92.2938 84.782 92.2938 84.782L93.5019 89.1687L94.4552 91.4307L95.463 92.9828L97.3045 94.2203L98.7108 94.7174L99.7511 94.9575L100.731 94.8757L101.706 94.3147H101.704Z" fill="#F49D75"/>
<path d="M100.028 95.0477C99.2698 95.0393 98.2043 94.8044 96.7256 94.0892C93.741 92.6451 92.5141 86.7084 91.6174 82.3742C91.22 80.4519 90.877 78.7918 90.5131 78.3933L90.6946 78.2276C91.1046 78.6765 91.4203 80.2065 91.8586 82.3249C92.6944 86.3676 93.9571 92.4763 96.8326 93.8679C99.1251 94.9774 100.36 94.9019 100.993 94.6429C101.485 94.4426 101.664 94.1175 101.708 94.02C101.541 93.159 98.5346 77.6299 98.0554 76.6451C97.9201 76.3662 97.6422 75.4266 97.2584 74.1251C96.238 70.6676 94.3388 64.2317 92.9293 63.3529C92.0369 62.796 84.76 59.264 77.7704 56.9139L77.8491 56.6811C84.8575 59.0365 92.1627 62.5852 93.0604 63.1442C94.5485 64.0723 96.3932 70.3215 97.4954 74.0549C97.8614 75.2965 98.1508 76.2771 98.2777 76.5371C98.7821 77.5743 101.829 93.3383 101.958 94.0084L101.964 94.0409L101.953 94.0724C101.946 94.0934 101.769 94.5863 101.099 94.8652C100.841 94.9722 100.493 95.0529 100.029 95.0477H100.028Z" fill="black"/>
</g>
<defs>
<clipPath id="clip0_6_202">
<rect width="300" height="209.74" fill="white"/>
</clipPath>
</defs>
</svg>
